<?xml version="1.0" encoding="utf-8"?>
<!-- Generator: Adobe Illustrator 22.0.1, SVG Export Plug-In . SVG Version: 6.00 Build 0)  -->
<svg version="1.1" id="Capa_1" xmlns="http://www.w3.org/2000/svg" xmlns:xlink="http://www.w3.org/1999/xlink" x="0px" y="0px"
	 viewBox="0 0 292 268" style="enable-background:new 0 0 292 268;" xml:space="preserve">
<style type="text/css">
	.st0{fill-rule:evenodd;clip-rule:evenodd;fill:#37d668;}
</style>
<g>
	<g>
		<polygon class="st0" points="73.3,76 115,76 232.2,198.6 190.5,198.6 		"/>
		<path class="st0" d="M133,137.3l-58.6,61.3h41.8l37.7-39.5L133,137.3z M233.4,76h-41.8l-38.4,40l21,22L233.4,76z"/>
		<polygon class="st0" points="72.4,152.9 57.6,137.3 72.4,121.7 90,121.7 90.7,121.7 108.3,121.7 123.2,137.3 108.3,152.9
			90.4,152.9 		"/>
		<polygon class="st0" points="26.9,159.2 64.6,198.6 85.5,176.8 47.8,137.3 		"/>
		<polygon class="st0" points="64.6,76 6,137.3 26.9,159.2 67.2,117 85.5,97.8 		"/>
		<polygon class="st0" points="205.4,159.2 243.2,198.6 284.9,198.6 226.3,137.3 		"/>
		<polygon class="st0" points="243.2,76 184.6,137.3 205.4,159.2 284.9,76 		"/>
	</g>
</g>
</svg>
